<svg xmlns="http://www.w3.org/2000/svg" width="26.667" height="20" viewBox="0 0 26.667 20"><path d="M26.161,70.6a.314.314,0,0,1,.505.245V81.5a2.5,2.5,0,0,1-2.5,2.5H2.5A2.5,2.5,0,0,1,0,81.5V70.854a.311.311,0,0,1,.505-.245c1.167.906,2.714,2.057,8.026,5.917,1.1.8,2.953,2.49,4.8,2.479,1.859.016,3.75-1.708,4.807-2.479C23.453,72.667,24.995,71.51,26.161,70.6ZM13.333,77.333c1.208.021,2.948-1.521,3.823-2.156,6.911-5.016,7.438-5.453,9.031-6.7a1.246,1.246,0,0,0,.479-.984V66.5a2.5,2.5,0,0,0-2.5-2.5H2.5A2.5,2.5,0,0,0,0,66.5v.99a1.254,1.254,0,0,0,.479.984c1.594,1.245,2.12,1.688,9.031,6.7C10.385,75.813,12.125,77.354,13.333,77.333Z" transform="translate(0 -64)" fill="#1a1414"/></svg>