<?xml version="1.0" encoding="UTF-8"?><svg id="a" xmlns="http://www.w3.org/2000/svg" viewBox="0 0 141.42 126.02"><defs><style>.b{fill:#e5e525;}.c{fill:none;stroke:#333;stroke-miterlimit:10;}</style></defs><g><path class="b" d="M80.29,125.52s-12.94-5.04-41.2-10.68c-13.84-3-25.99-7.39-31.83-12.82-6.3-5.13-6.3-11.29-6.53-11.15-.02,.01,10.96,6.27,39.59,11.68,13.98,2.92,26.63,7,32.83,12.19,6.68,4.9,6.92,10.91,7.14,10.77Z"/><path class="c" d="M80.29,125.52s-12.94-5.04-41.2-10.68c-13.84-3-25.99-7.39-31.83-12.82-6.3-5.13-6.3-11.29-6.53-11.15-.02,.01,10.96,6.27,39.59,11.68,13.98,2.92,26.63,7,32.83,12.19,6.68,4.9,6.92,10.91,7.14,10.77Z"/></g><g><path class="b" d="M95.65,115.4s-15.3-3.35-47.67-4.15c-15.9-.68-30.2-3.42-37.73-8.76-7.98-4.89-9.17-12.38-9.4-12.16-.02,.02,13.35,5.27,46.09,5.71,16.04,.55,30.83,2.8,38.71,7.79,8.35,4.52,9.78,11.78,10,11.56Z"/><path class="c" d="M95.65,115.4s-15.3-3.35-47.67-4.15c-15.9-.68-30.2-3.42-37.73-8.76-7.98-4.89-9.17-12.38-9.4-12.16-.02,.02,13.35,5.27,46.09,5.71,16.04,.55,30.83,2.8,38.71,7.79,8.35,4.52,9.78,11.78,10,11.56Z"/></g><g><path class="b" d="M110.67,99.79s-17.58-.79-53.56,5.18c-17.73,2.58-34.09,2.32-43.45-2.56-9.78-4.23-12.57-13.09-12.77-12.77-.02,.03,15.8,3.55,52.11-2.93,17.85-2.77,34.66-3.2,44.35,1.17,10.12,3.71,13.12,12.22,13.33,11.91Z"/><path class="c" d="M110.67,99.79s-17.58-.79-53.56,5.18c-17.73,2.58-34.09,2.32-43.45-2.56-9.78-4.23-12.57-13.09-12.77-12.77-.02,.03,15.8,3.55,52.11-2.93,17.85-2.77,34.66-3.2,44.35,1.17,10.12,3.71,13.12,12.22,13.33,11.91Z"/></g><g><path class="b" d="M124.24,77.6s-19.61,2.81-58.25,17.77c-19.11,6.94-37.27,10.13-48.58,6.2C5.76,98.53,.95,88.36,.78,88.8c-.01,.03,18.18,.93,57.09-14.74,19.21-7.2,37.73-11.33,49.3-8.08,11.92,2.34,16.91,12.05,17.07,11.63Z"/><path class="c" d="M124.24,77.6s-19.61,2.81-58.25,17.77c-19.11,6.94-37.27,10.13-48.58,6.2C5.76,98.53,.95,88.36,.78,88.8c-.01,.03,18.18,.93,57.09-14.74,19.21-7.2,37.73-11.33,49.3-8.08,11.92,2.34,16.91,12.05,17.07,11.63Z"/></g><g><path class="b" d="M134.93,47.71s-21.15,7.62-60.99,34.1c-19.8,12.54-39.26,20.31-52.55,17.96-13.49-1.21-20.79-12.54-20.89-11.98,0,.04,20.3-2.77,60.29-30.16,19.85-12.87,39.53-21.86,52.98-20.4,13.65,.29,21.06,11.03,21.16,10.47Z"/><path class="c" d="M134.93,47.71s-21.15,7.62-60.99,34.1c-19.8,12.54-39.26,20.31-52.55,17.96-13.49-1.21-20.79-12.54-20.89-11.98,0,.04,20.3-2.77,60.29-30.16,19.85-12.87,39.53-21.86,52.98-20.4,13.65,.29,21.06,11.03,21.16,10.47Z"/></g><g><path class="b" d="M140.92,9.08s-21.92,13.79-60.83,54.53c-19.46,19.49-39.48,33.11-54.64,33.1C10.29,98.13,0,85.92,0,86.63c0,.06,21.92-7.72,60.83-49.59C80.29,17.13,100.31,1.98,115.47,.88c15.16-2.58,25.45,8.89,25.45,8.2Z"/><path class="c" d="M140.92,9.08s-21.92,13.79-60.83,54.53c-19.46,19.49-39.48,33.11-54.64,33.1C10.29,98.13,0,85.92,0,86.63c0,.06,21.92-7.72,60.83-49.59C80.29,17.13,100.31,1.98,115.47,.88c15.16-2.58,25.45,8.89,25.45,8.2Z"/></g></svg>